<svg width="16" height="17" viewBox="0 0 16 17" fill="none" xmlns="http://www.w3.org/2000/svg">
<path fill-rule="evenodd" clip-rule="evenodd" d="M6.96342 6.63534L7.00109 6.63701C7.13843 6.63701 7.27095 6.57136 7.35601 6.46052C7.45025 6.33719 7.47522 6.17586 7.42287 6.02996C7.41841 6.01748 6.99002 4.76912 7.54637 3.72978C8.13699 2.73956 8.32942 1.94253 8.11801 1.36052C7.92824 0.837564 7.50028 0.698807 7.45326 0.685241C7.21885 0.61572 6.96471 0.754686 6.89561 0.990248C6.82532 1.22961 6.96093 1.48254 7.17893 1.5468C7.18152 1.54788 7.24194 1.57803 7.27654 1.67324C7.32742 1.81293 7.38159 2.24596 6.79297 3.23755L6.77133 3.27426C6.72635 3.34919 6.67787 3.42694 6.62543 3.50794C5.94426 4.56373 5.74016 5.39513 6.01895 5.97796C6.24322 6.4484 6.71596 6.61227 6.96342 6.63534ZM13.3003 14.3013C12.6986 14.2587 12.01 14.225 11.2668 14.1995C11.945 13.6082 12.5174 12.8417 12.9383 11.9498C13.1437 12.1575 13.3991 12.3092 13.6885 12.3799C13.8152 12.4114 13.9433 12.4265 14.0705 12.4265C14.3614 12.4265 14.6477 12.3458 14.9024 12.1889C15.2686 11.9633 15.5261 11.6072 15.6272 11.1859C15.7285 10.7645 15.6612 10.3288 15.4382 9.95878C15.0642 9.33824 14.3427 9.0688 13.6798 9.2357C13.7086 8.94648 13.7281 8.65359 13.7281 8.35488C13.7281 8.0428 13.4783 7.7898 13.1695 7.7898H2.82904C2.52057 7.7898 2.27036 8.0428 2.27036 8.35488C2.27036 10.7729 3.24472 12.9097 4.72847 14.1998C3.98663 14.2252 3.29913 14.2591 2.69841 14.3013C0.607062 14.4492 -0.000976562 14.5899 -0.000976562 15.2373C-0.000976562 15.8842 0.607062 16.0253 2.69841 16.1731C4.11632 16.2735 5.99894 16.3288 7.99932 16.3288C9.9996 16.3288 11.8822 16.2735 13.3003 16.1731C15.3916 16.0253 15.9994 15.8842 15.9994 15.2373C15.9994 14.5899 15.3916 14.4492 13.3003 14.3013ZM13.5681 10.0008C13.5701 9.99921 13.5723 9.99865 13.5745 9.99809C13.5768 9.99753 13.579 9.99697 13.581 9.99541C14.021 9.72481 14.5975 9.86625 14.8657 10.3113C14.9957 10.5266 15.0346 10.7807 14.9757 11.0261C14.9168 11.2714 14.7672 11.4787 14.5536 11.6099C14.3404 11.7415 14.089 11.7808 13.8468 11.7217C13.6041 11.6619 13.3988 11.5104 13.2691 11.2945C13.2623 11.2831 13.2532 11.2745 13.2441 11.2659C13.239 11.2611 13.2339 11.2564 13.2292 11.2511C13.3724 10.852 13.4851 10.4336 13.5681 10.0008ZM3.40797 8.9195H12.5907C12.3712 11.9639 10.3958 14.3544 7.99932 14.3544C5.60292 14.3544 3.62761 11.9639 3.40797 8.9195ZM9.37911 6.72023L9.3478 6.71922C9.11484 6.6965 8.79857 6.5558 8.6444 6.23212C8.44658 5.81914 8.57129 5.27549 9.02619 4.57085C9.05365 4.52816 9.07966 4.48627 9.10403 4.4461L9.12978 4.40303C9.48048 3.81258 9.4192 3.59823 9.41105 3.57609C9.41252 3.57681 9.43104 3.5851 9.45698 3.59239C9.34968 3.56007 9.26084 3.4871 9.20764 3.38742C9.15391 3.28723 9.14215 3.17213 9.17441 3.06322C9.23768 2.84571 9.47955 2.71178 9.69729 2.77575C9.75892 2.79443 10.0647 2.90442 10.2019 3.2814C10.3499 3.68925 10.2308 4.20693 9.83857 4.86397C9.53365 5.43419 9.7725 6.14118 9.77548 6.15001L9.77549 6.15004C9.82476 6.28764 9.80107 6.43931 9.71188 6.55537C9.63216 6.65886 9.50788 6.72023 9.37911 6.72023Z" fill="white"/>
</svg>
