<svg width="17" height="16" viewBox="0 0 17 16" fill="none" xmlns="http://www.w3.org/2000/svg">
<path fill-rule="evenodd" clip-rule="evenodd" d="M16.2622 0.516769C16.3175 0.487771 16.3854 0.494845 16.4357 0.533221C16.4848 0.572227 16.5069 0.636055 16.4921 0.697435L13.5808 12.5995C13.5703 12.6426 13.542 12.6785 13.5037 12.7008C13.4793 12.7144 13.4514 12.722 13.4236 12.722C13.4079 12.722 13.3922 12.7194 13.3768 12.7149L7.55319 10.9559C7.50127 10.9403 7.46093 10.8996 7.44522 10.8486C7.43021 10.7963 7.44204 10.7404 7.47698 10.6995L13.274 3.89632L5.7268 10.2929C5.68483 10.3315 5.62458 10.3438 5.57016 10.3266L0.608199 8.76185C0.546069 8.74182 0.501856 8.6867 0.496118 8.62208C0.490969 8.5571 0.52496 8.49572 0.583917 8.46616L16.2622 0.516769ZM7.64804 12.2031L9.25728 12.6941C9.30535 12.7086 9.34371 12.7449 9.36138 12.7919C9.37898 12.8382 9.37349 12.8905 9.34628 12.9324L7.73706 15.454C7.70631 15.501 7.65473 15.5286 7.60058 15.5286C7.58521 15.5286 7.5702 15.5261 7.55578 15.5223C7.48626 15.5023 7.43887 15.4396 7.43887 15.3682V12.356C7.43887 12.3053 7.4629 12.2574 7.50453 12.2272C7.54582 12.1966 7.59929 12.1871 7.64804 12.2031Z" fill="white"/>
</svg>
