<svg width="16" height="16" viewBox="0 0 16 16" fill="none" xmlns="http://www.w3.org/2000/svg">
<path fill-rule="evenodd" clip-rule="evenodd" d="M14.6631 4.0004H8.98734L11.2262 1.31272C11.262 1.319 11.2928 1.33292 11.33 1.33292C11.6985 1.33292 11.9967 1.03462 11.9967 0.665857C11.9967 0.298977 11.6985 -0.00134277 11.33 -0.00134277C10.9633 -0.00134277 10.6634 0.298977 10.6634 0.665857C10.6634 0.746417 10.6834 0.820477 10.7092 0.891597L8.11942 4.0004H7.8755L5.28692 0.891597C5.31208 0.820477 5.33155 0.746417 5.33155 0.665857C5.33155 0.298977 5.03346 -0.00134277 4.66492 -0.00134277C4.29765 -0.00134277 3.99827 0.298977 3.99827 0.665857C3.99827 1.03462 4.29765 1.33292 4.66492 1.33292C4.70199 1.33292 4.7341 1.319 4.76868 1.31272L7.00817 4.0004H1.33236C0.596546 4.0004 -0.000244141 4.5983 -0.000244141 5.33386V14.6714C-0.000244141 15.4076 0.596546 16.0047 1.33236 16.0047H14.6631C15.399 16.0047 15.9958 15.4076 15.9958 14.6714V5.33386C15.9958 4.5983 15.399 4.0004 14.6631 4.0004ZM11.9967 13.3373C11.9967 14.0736 11.4004 14.6714 10.6634 14.6714H2.66567C1.92983 14.6714 1.33236 14.0736 1.33236 13.3373V6.66796C1.33236 5.93118 1.92983 5.33386 2.66567 5.33386H10.6634C11.4004 5.33386 11.9967 5.93118 11.9967 6.66796V13.3373ZM13.9606 7.3767C13.4349 7.3767 13.0085 6.94932 13.0085 6.42376C13.0085 5.8977 13.4349 5.47182 13.9606 5.47182C14.4858 5.47182 14.9122 5.8977 14.9122 6.42376C14.9122 6.94932 14.4858 7.3767 13.9606 7.3767Z" fill="white"/>
</svg>
