<svg width="13" height="16" viewBox="0 0 13 16" fill="none" xmlns="http://www.w3.org/2000/svg">
<path fill-rule="evenodd" clip-rule="evenodd" d="M9.15473 5.69772L12.2195 13.9885C12.3997 14.4265 12.3464 14.9403 12.0712 15.3478C11.7958 15.7555 11.3371 15.9981 10.8436 15.9981H2.12177C1.62824 15.9981 1.16947 15.7555 0.894039 15.3486C0.618789 14.9403 0.565479 14.4262 0.751824 13.9725L3.81074 5.69772V3.25736C3.23113 3.05664 2.81605 2.51003 2.81605 1.86894V1.47075C2.81605 0.659667 3.47969 0.000183105 4.29535 0.000183105H8.66978C9.48553 0.000183105 10.1491 0.659667 10.1491 1.47075V1.86894C10.1491 2.51061 9.73289 3.05801 9.15473 3.258V5.69772ZM4.61231 11.6077C4.33483 11.6077 4.10935 11.831 4.10935 12.109C4.10935 12.3865 4.33483 12.6102 4.61231 12.6102C4.89196 12.6102 5.1176 12.3865 5.1176 12.109C5.1176 11.831 4.89196 11.6077 4.61231 11.6077ZM8.23025 13.4111C8.23025 12.9348 7.84066 12.5461 7.3589 12.5461C6.87661 12.5461 6.48788 12.9348 6.48788 13.4111C6.48788 13.8895 6.87661 14.2782 7.3589 14.2782C7.84066 14.2782 8.23025 13.8895 8.23025 13.4111ZM7.24594 10.0239C6.89867 10.0239 6.61723 10.3049 6.61723 10.6479C6.61723 10.992 6.89867 11.2719 7.24594 11.2719C7.59142 11.2719 7.87268 10.992 7.87268 10.6479C7.87268 10.3049 7.59142 10.0239 7.24594 10.0239ZM4.78913 2.85297V5.87052L3.64775 8.95814H3.69281C3.69281 8.95814 8.36218 8.88183 9.00118 8.22199C9.00774 8.21535 9.01381 8.21013 9.01991 8.2049C9.02467 8.20081 9.02944 8.19671 9.03448 8.19191L8.17618 5.87052V2.36643H8.66542C8.9459 2.36643 9.17053 2.14314 9.17053 1.86894V1.47075C9.17053 1.19617 8.9459 0.972903 8.66978 0.972903H4.29535C4.01932 0.972903 3.79453 1.19617 3.79453 1.47075V1.86894C3.79453 2.14314 4.01932 2.36643 4.29535 2.36643H4.78475L4.78913 2.85297ZM6.8228 7.06579C6.8228 7.4401 6.51724 7.74418 6.14233 7.74418C5.76527 7.74418 5.46016 7.4401 5.46016 7.06579C5.46016 6.69343 5.76527 6.38858 6.14233 6.38858C6.51724 6.38858 6.8228 6.69343 6.8228 7.06579Z" fill="white"/>
</svg>
